# xmcd
#
# Track frame offsets:
#	150
#	16191
#	32860
#	43756
#	54599
#	75270
#	82898
#	94102
#	105902
#	116981
#	122626
#	139995
#	168591
#	189413
#
# Disc length: 3916 seconds
#
# Revision: 1
# Processed by: cddbd v1.5.1PL2 Copyright (c) Steve Scherf et al.
# Submitted via: audiograbber 1.81.03
#
DISCID=ad0f4a0e
DTITLE=David P`Smith - Striving For A New Tomorrow
DYEAR=2006
DGENRE=Alternative
TTITLE0=Jackhammer Man
TTITLE1=Fourth Of July
TTITLE2=Sunday
TTITLE3=Clarity Of Whiskey
TTITLE4=Holy Pies
TTITLE5=Obituary
TTITLE6=Teen Age Drinking Song
TTITLE7=Monday
TTITLE8=New Possum Pie
TTITLE9=Calgary Acid Song
TTITLE10=Worst Job
TTITLE11=Days Of The Week
TTITLE12=December Rain
TTITLE13=Live
EXTD=
EXTT0=
EXTT1=
EXTT2=
EXTT3=
EXTT4=
EXTT5=
EXTT6=
EXTT7=
EXTT8=
EXTT9=
EXTT10=
EXTT11=
EXTT12=
EXTT13=
PLAYORDER=
